<svg width="26" height="22" viewBox="0 0 26 22" fill="none" xmlns="http://www.w3.org/2000/svg">
<path d="M1 17.6665C5 17.6665 5 20.3332 9 20.3332C13 20.3332 13 17.6665 17 17.6665C21 17.6665 21 20.3332 25 20.3332" stroke="white" stroke-width="2" stroke-linecap="round" stroke-linejoin="round"/>
<path d="M1 9.6665C5 9.6665 5 12.3332 9 12.3332C13 12.3332 13 9.6665 17 9.6665C21 9.6665 21 12.3332 25 12.3332" stroke="white" stroke-width="2" stroke-linecap="round" stroke-linejoin="round"/>
<path d="M1 1.66675C5 1.66675 5 4.33341 9 4.33341C13 4.33341 13 1.66675 17 1.66675C21 1.66675 21 4.33341 25 4.33341" stroke="white" stroke-width="2" stroke-linecap="round" stroke-linejoin="round"/>
</svg>
