<svg width="26" height="26" viewBox="0 0 26 26" fill="none" xmlns="http://www.w3.org/2000/svg">
<path d="M25 13V4C25 3.20435 24.6839 2.44129 24.1213 1.87868C23.5587 1.31607 22.7956 1 22 1H4C3.20435 1 2.44133 1.31607 1.87872 1.87868C1.31611 2.44129 1 3.20435 1 4V13C1 13.7956 1.31611 14.5587 1.87872 15.1213C2.44133 15.6839 3.20435 16 4 16H5.5L8.5 25L11.5 16H22C22.7956 16 23.5587 15.6839 24.1213 15.1213C24.6839 14.5587 25 13.7956 25 13Z" stroke="white" stroke-width="2" stroke-linecap="round" stroke-linejoin="round"/>
</svg>
