<svg width="22" height="26" viewBox="0 0 22 26" fill="none" xmlns="http://www.w3.org/2000/svg">
<path d="M11 9V17" stroke="white" stroke-width="2" stroke-linecap="round" stroke-linejoin="round"/>
<path d="M7 13H15" stroke="white" stroke-width="2" stroke-linecap="round" stroke-linejoin="round"/>
<path d="M15.0003 25H4.33366C3.62641 25 2.94818 24.7191 2.44808 24.219C1.94798 23.7189 1.66699 23.0406 1.66699 22.3333V3.66667C1.66699 2.95942 1.94798 2.28114 2.44808 1.78105C2.94818 1.28095 3.62641 1 4.33366 1H17.667C18.3742 1 19.0525 1.28095 19.5526 1.78105C20.0527 2.28114 20.3337 2.95942 20.3337 3.66667V19.6667L15.0003 25Z" stroke="white" stroke-width="2" stroke-linecap="round" stroke-linejoin="round"/>
<path d="M15 25.0001V21.0001C15 20.6465 15.1404 20.3073 15.3905 20.0573C15.6405 19.8072 15.9797 19.6667 16.3333 19.6667H20.3333" stroke="white" stroke-width="2" stroke-linecap="round" stroke-linejoin="round"/>
</svg>
