<svg width="38" height="38" viewBox="0 0 38 38" fill="none" xmlns="http://www.w3.org/2000/svg">
<circle cx="19" cy="19" r="18" stroke="#D44C3B" stroke-width="2"/>
<path d="M10 13.6C10 13.1029 10.4029 12.7 10.9 12.7H27.1C27.5971 12.7 28 13.1029 28 13.6C28 14.097 27.5971 14.5 27.1 14.5L10.9 14.5C10.4029 14.5 10 14.097 10 13.6Z" fill="#D44C3B"/>
<path d="M10 19C10 18.5029 10.4029 18.1 10.9 18.1L27.1 18.1C27.5971 18.1 28 18.5029 28 19C28 19.497 27.5971 19.9 27.1 19.9L10.9 19.9C10.4029 19.9 10 19.497 10 19Z" fill="#D44C3B"/>
<path d="M10.9 23.5C10.4029 23.5 10 23.9029 10 24.4C10 24.897 10.4029 25.3 10.9 25.3L27.1 25.3C27.5971 25.3 28 24.897 28 24.4C28 23.9029 27.5971 23.5 27.1 23.5L10.9 23.5Z" fill="#D44C3B"/>
</svg>
