<svg width="31" height="35" viewBox="0 0 31 35" xmlns="http://www.w3.org/2000/svg">
<path d="M11.6934 13.8184C15.0071 13.8184 17.6934 11.1321 17.6934 7.81836C17.6934 4.50465 15.0071 1.81836 11.6934 1.81836C8.37965 1.81836 5.69336 4.50465 5.69336 7.81836C5.69336 11.1321 8.37965 13.8184 11.6934 13.8184Z" stroke-width="2" stroke-linecap="round" stroke-linejoin="round"/>
<path d="M1.69336 33.8184V27.8184C1.69336 25.6966 2.53633 23.6618 4.03662 22.1615C5.53691 20.6612 7.57163 19.8184 9.69336 19.8184H13.6934C15.8151 19.8184 17.8498 20.6612 19.3501 22.1615C20.8504 23.6618 21.6934 25.6966 21.6934 27.8184V33.8184"  stroke-width="2" stroke-linecap="round" stroke-linejoin="round"/>
<path d="M25.6934 9.81836V17.8184" stroke-width="2" stroke-linecap="round" stroke-linejoin="round"/>
<path d="M29.6934 13.8184H21.6934" stroke-width="2" stroke-linecap="round" stroke-linejoin="round"/>
</svg>
