<svg width="26" height="22" viewBox="0 0 26 22" fill="none" xmlns="http://www.w3.org/2000/svg">
<path d="M1 1H23.6667C24.0203 1 24.3595 1.1405 24.6095 1.39054C24.8596 1.64059 25 1.97971 25 2.33333V3.66667C25 4.02029 24.8596 4.35941 24.6095 4.60946C24.3595 4.8595 24.0203 5 23.6667 5H1V1Z" stroke="white" stroke-width="2" stroke-linecap="round" stroke-linejoin="round"/>
<path d="M1 9H15.6667C16.0203 9 16.3595 9.1405 16.6095 9.39054C16.8596 9.64059 17 9.97971 17 10.3333V11.6667C17 12.0203 16.8596 12.3594 16.6095 12.6095C16.3595 12.8595 16.0203 13 15.6667 13H1V9Z" stroke="white" stroke-width="2" stroke-linecap="round" stroke-linejoin="round"/>
<path d="M1 17H7.66667C8.02029 17 8.35949 17.1405 8.60954 17.3905C8.85959 17.6406 9 17.9797 9 18.3333V19.6667C9 20.0203 8.85959 20.3594 8.60954 20.6095C8.35949 20.8595 8.02029 21 7.66667 21H1V17Z" stroke="white" stroke-width="2" stroke-linecap="round" stroke-linejoin="round"/>
</svg>
