<svg width="22" height="26" viewBox="0 0 22 26" fill="none" xmlns="http://www.w3.org/2000/svg">
<path d="M8.33366 25H4.33366C3.62641 25 2.94818 24.7191 2.44808 24.219C1.94798 23.7189 1.66699 23.0406 1.66699 22.3333V3.66667C1.66699 2.95942 1.94798 2.28114 2.44808 1.78105C2.94818 1.28095 3.62641 1 4.33366 1H17.667C18.3742 1 19.0525 1.28095 19.5526 1.78105C20.0527 2.28114 20.3337 2.95942 20.3337 3.66667V13" stroke="white" stroke-width="2" stroke-linecap="round" stroke-linejoin="round"/>
<path d="M7 7.66675H15" stroke="white" stroke-width="2" stroke-linecap="round" stroke-linejoin="round"/>
<path d="M7 13H9.66667" stroke="white" stroke-width="2" stroke-linecap="round" stroke-linejoin="round"/>
<path d="M15 23.6667C17.2091 23.6667 19 21.8759 19 19.6667C19 17.4576 17.2091 15.6667 15 15.6667C12.7909 15.6667 11 17.4576 11 19.6667C11 21.8759 12.7909 23.6667 15 23.6667Z" stroke="white" stroke-width="2" stroke-linecap="round" stroke-linejoin="round"/>
<path d="M20.3338 25L17.8271 22.4933" stroke="white" stroke-width="2" stroke-linecap="round" stroke-linejoin="round"/>
</svg>
