<svg width="26" height="26" viewBox="0 0 26 26" fill="none" xmlns="http://www.w3.org/2000/svg">
<path d="M11.5 25H4C3.20435 25 2.44133 24.6839 1.87872 24.1213C1.31611 23.5587 1 22.7956 1 22V4C1 3.20435 1.31611 2.44129 1.87872 1.87868C2.44133 1.31607 3.20435 1 4 1H22C22.7956 1 23.5587 1.31607 24.1213 1.87868C24.6839 2.44129 25 3.20435 25 4V11.5" stroke="white" stroke-width="2" stroke-linecap="round" stroke-linejoin="round"/>
<path d="M1 10H25" stroke="white" stroke-width="2" stroke-linecap="round" stroke-linejoin="round"/>
<path d="M19 23.5C21.4853 23.5 23.5 21.4853 23.5 19C23.5 16.5147 21.4853 14.5 19 14.5C16.5147 14.5 14.5 16.5147 14.5 19C14.5 21.4853 16.5147 23.5 19 23.5Z" stroke="white" stroke-width="2" stroke-linecap="round" stroke-linejoin="round"/>
<path d="M24.9997 24.9999L22.1797 22.1799" stroke="white" stroke-width="2" stroke-linecap="round" stroke-linejoin="round"/>
</svg>
