<?xml version="1.0" encoding="UTF-8" standalone="no"?> <svg id="Layer_1" data-name="Layer 1" xmlns="http://www.w3.org/2000/svg" viewBox="0 0 128 128"><defs><style></style></defs><title>n</title><path d="M123.28788,96.79737,100.78819,80.34893a6.26082,6.26082,0,0,0-8.08382.58949l-12.02065,11.805-.04092.04092a5.33619,5.33619,0,0,1-7.50362-.08369L52.35966,71.92108,35.2994,54.86081a5.33619,5.33619,0,0,1-.08369-7.50362l.04092-.04092,11.805-12.02065a6.26082,6.26082,0,0,0,.58949-8.08382L31.20263,4.71212a6.26247,6.26247,0,0,0-9.48412-.73271l-8.47993,8.47993q-.80336.80336-1.5342,1.66808C10.14787,15.9666,6.77822,20.09128,5.49694,22.745a34.59493,34.59493,0,0,0,5.73882,38.17081l55.84846,55.84846a34.59493,34.59493,0,0,0,38.17081,5.73882c2.65369-1.28128,6.77836-4.65093,8.61754-6.20744q.86472-.73083,1.66808-1.5342l8.47993-8.47993A6.26247,6.26247,0,0,0,123.28788,96.79737Z"/></svg>