<svg width="26" height="22" viewBox="0 0 26 22" fill="none" xmlns="http://www.w3.org/2000/svg">
<path d="M22.3333 6.92993C23.0406 6.92993 23.7188 7.21092 24.2189 7.71102C24.719 8.21112 25 8.88935 25 9.5966V17.5966C25 18.3038 24.719 18.9821 24.2189 19.4822C23.7188 19.9823 23.0406 20.2633 22.3333 20.2633H3.66667C2.95942 20.2633 2.28118 19.9823 1.78109 19.4822C1.28099 18.9821 1 18.3038 1 17.5966V9.5966C1 8.88935 1.28099 8.21112 1.78109 7.71102C2.28118 7.21092 2.95942 6.92993 3.66667 6.92993" stroke="white" stroke-width="2" stroke-linecap="round" stroke-linejoin="round"/>
<path d="M18.3337 7.06991C18.3337 10.0966 13.0003 14.9299 13.0003 14.9299C13.0003 14.9299 7.66699 10.0966 7.66699 7.06991C7.66699 5.65542 8.22897 4.29886 9.22917 3.29867C10.2294 2.29847 11.5858 1.73657 13.0003 1.73657C14.4148 1.73657 15.7713 2.29847 16.7715 3.29867C17.7717 4.29886 18.3337 5.65542 18.3337 7.06991Z" stroke="white" stroke-width="2" stroke-linecap="round" stroke-linejoin="round"/>
</svg>
