<svg width="26" height="26" viewBox="0 0 26 26" fill="none" xmlns="http://www.w3.org/2000/svg">
<path d="M8.5 10C10.9853 10 13 7.98528 13 5.5C13 3.01472 10.9853 1 8.5 1C6.01472 1 4 3.01472 4 5.5C4 7.98528 6.01472 10 8.5 10Z" stroke="white" stroke-width="2" stroke-linecap="round" stroke-linejoin="round"/>
<path d="M1 25V20.5C1 18.9087 1.63223 17.3826 2.75745 16.2574C3.88266 15.1321 5.4087 14.5 7 14.5H10C11.5913 14.5 13.1173 15.1321 14.2426 16.2574C15.3678 17.3826 16 18.9087 16 20.5V22" stroke="white" stroke-width="2" stroke-linecap="round" stroke-linejoin="round"/>
<path d="M20.5 10C22.1569 10 23.5 8.65685 23.5 7C23.5 5.34315 22.1569 4 20.5 4C18.8431 4 17.5 5.34315 17.5 7C17.5 8.65685 18.8431 10 20.5 10Z" stroke="white" stroke-width="2" stroke-linecap="round" stroke-linejoin="round"/>
<path d="M16 20.5V17.5C16 16.7044 16.3161 15.9413 16.8787 15.3787C17.4413 14.8161 18.2044 14.5 19 14.5H22C22.7956 14.5 23.5587 14.8161 24.1213 15.3787C24.6839 15.9413 25 16.7044 25 17.5V19" stroke="white" stroke-width="2" stroke-linecap="round" stroke-linejoin="round"/>
</svg>
