<svg width="26" height="26" viewBox="0 0 26 26" fill="none" xmlns="http://www.w3.org/2000/svg">
<path d="M14.5 8.5H4C2.34315 8.5 1 9.84315 1 11.5V22C1 23.6569 2.34315 25 4 25H14.5C16.1569 25 17.5 23.6569 17.5 22V11.5C17.5 9.84315 16.1569 8.5 14.5 8.5Z" stroke="white" stroke-width="2" stroke-linecap="round" stroke-linejoin="round"/>
<path d="M17.5 17.5H22C22.7956 17.5 23.5587 17.1839 24.1213 16.6213C24.6839 16.0587 25 15.2956 25 14.5V4C25 3.20435 24.6839 2.44129 24.1213 1.87868C23.5587 1.31607 22.7956 1 22 1H11.5C10.7044 1 9.94133 1.31607 9.37872 1.87868C8.81611 2.44129 8.5 3.20435 8.5 4V8.5" stroke="white" stroke-width="2" stroke-linecap="round" stroke-linejoin="round"/>
</svg>
