<svg width="48" height="55" viewBox="0 0 48 55" fill="none" xmlns="http://www.w3.org/2000/svg">
<path fill-rule="evenodd" clip-rule="evenodd" d="M30.954 35.1935C27.2803 33.627 23.8221 32.163 20.492 30.361C16.7131 28.579 13.1913 26.2963 10.0215 23.5745C6.98331 20.9256 4.83879 17.4018 3.88195 13.4862C3.21681 9.15208 3.79551 4.71816 5.55084 0.699974L4.99237 1.65879C2.56019 5.27999 1.05626 9.44396 0.613119 13.7836C0.442694 18.8449 1.96912 23.818 4.94971 27.9123C7.71369 31.9241 10.9997 35.55 14.721 38.6942C17.7166 41.425 21.1241 43.9601 24.3506 46.4126L19.7232 54.3571L47.794 52.5003L35.51 27.2533L30.954 35.1935Z" fill="white"/>
</svg>
