<svg width="64" height="40" viewBox="0 0 64 40" fill="none" xmlns="http://www.w3.org/2000/svg">
<path fill-rule="evenodd" clip-rule="evenodd" d="M40.2354 17.7895C36.2726 18.2849 32.5475 18.7604 28.7629 18.8793C24.6007 19.2414 20.4086 19.0415 16.2996 18.2849C12.3411 17.5251 8.71445 15.5595 5.9169 12.6576C3.16075 9.24719 1.4292 5.12454 0.923625 0.768921L0.923625 1.87852C0.644527 6.23177 1.44071 10.5868 3.24194 14.5598C5.64209 19.0191 9.46408 22.5481 14.1003 24.5858C18.5078 26.6614 23.1722 28.1407 27.9704 28.9847C31.9333 29.8367 36.1537 30.3122 40.176 30.8076L40.176 40.0015L63.4976 24.2688L40.176 8.63525L40.2354 17.7895Z" fill="#D44C3B"/>
</svg>
