<svg width="36" height="37" viewBox="0 0 36 37" fill="none" xmlns="http://www.w3.org/2000/svg">
<g clip-path="url(#clip0_1_4640)">
<path d="M18 36.8198C27.9411 36.8198 36 28.761 36 18.8198C36 8.8787 27.9411 0.819824 18 0.819824C8.05887 0.819824 0 8.8787 0 18.8198C0 28.761 8.05887 36.8198 18 36.8198Z" fill="#039BE5"/>
<path d="M15.9103 21.3941L15.5891 25.9125C16.0487 25.9125 16.2477 25.715 16.4865 25.4779L18.6412 23.4186L23.1062 26.6884C23.925 27.1448 24.502 26.9045 24.7229 25.9351L27.6536 12.2021L27.6544 12.2013C27.9142 10.9908 27.2167 10.5174 26.4189 10.8144L9.19189 17.4098C8.01618 17.8662 8.03399 18.5216 8.99203 18.8186L13.3963 20.1885L23.6265 13.7872C24.1079 13.4684 24.5457 13.6448 24.1856 13.9636L15.9103 21.3941Z" fill="white"/>
</g>
<defs>
<clipPath id="clip0_1_4640">
<rect width="36" height="36" fill="white" transform="translate(0 0.819824)"/>
</clipPath>
</defs>
</svg>
