<svg width="91" height="26" viewBox="0 0 91 26" fill="none" xmlns="http://www.w3.org/2000/svg">
<path d="M23.824 2.76V25H20.176V9.768L13.392 25H10.864L4.048 9.768V25H0.4V2.76H4.336L12.144 20.2L19.92 2.76H23.824ZM30.4748 5.032C29.8134 5.032 29.2588 4.808 28.8108 4.36C28.3628 3.912 28.1388 3.35733 28.1388 2.696C28.1388 2.03467 28.3628 1.48 28.8108 1.032C29.2588 0.583999 29.8134 0.359999 30.4748 0.359999C31.1148 0.359999 31.6588 0.583999 32.1068 1.032C32.5548 1.48 32.7788 2.03467 32.7788 2.696C32.7788 3.35733 32.5548 3.912 32.1068 4.36C31.6588 4.808 31.1148 5.032 30.4748 5.032ZM32.2668 7.368V25H28.6188V7.368H32.2668ZM44.6083 16.072L50.3043 25H46.1763L42.3683 19.016L38.7843 25H34.9763L40.6723 16.328L34.9763 7.368H39.1043L42.9123 13.352L46.4963 7.368H50.3043L44.6083 16.072ZM56.673 9.992C57.2917 9.13867 58.1343 8.44533 59.201 7.912C60.289 7.35733 61.4943 7.08 62.817 7.08C64.3743 7.08 65.7823 7.45333 67.041 8.2C68.2997 8.94667 69.2917 10.0133 70.017 11.4C70.7423 12.7653 71.105 14.3333 71.105 16.104C71.105 17.8747 70.7423 19.464 70.017 20.872C69.2917 22.2587 68.289 23.3467 67.009 24.136C65.7503 24.904 64.353 25.288 62.817 25.288C61.4517 25.288 60.2357 25.0213 59.169 24.488C58.1237 23.9547 57.2917 23.272 56.673 22.44V25H53.025V1.32H56.673V9.992ZM67.393 16.104C67.393 14.888 67.137 13.8427 66.625 12.968C66.1343 12.072 65.473 11.4 64.641 10.952C63.8303 10.4827 62.9557 10.248 62.017 10.248C61.0997 10.248 60.225 10.4827 59.393 10.952C58.5823 11.4213 57.921 12.104 57.409 13C56.9183 13.896 56.673 14.952 56.673 16.168C56.673 17.384 56.9183 18.4507 57.409 19.368C57.921 20.264 58.5823 20.9467 59.393 21.416C60.225 21.8853 61.0997 22.12 62.017 22.12C62.9557 22.12 63.8303 21.8853 64.641 21.416C65.473 20.9253 66.1343 20.2213 66.625 19.304C67.137 18.3867 67.393 17.32 67.393 16.104ZM90.8725 15.752C90.8725 16.4133 90.8298 17.0107 90.7445 17.544H77.2725C77.3792 18.952 77.9018 20.0827 78.8405 20.936C79.7792 21.7893 80.9312 22.216 82.2965 22.216C84.2592 22.216 85.6458 21.3947 86.4565 19.752H90.3925C89.8592 21.3733 88.8885 22.7067 87.4805 23.752C86.0938 24.776 84.3658 25.288 82.2965 25.288C80.6112 25.288 79.0965 24.9147 77.7525 24.168C76.4298 23.4 75.3845 22.3333 74.6165 20.968C73.8698 19.5813 73.4965 17.9813 73.4965 16.168C73.4965 14.3547 73.8592 12.7653 74.5845 11.4C75.3312 10.0133 76.3658 8.94667 77.6885 8.2C79.0325 7.45333 80.5685 7.08 82.2965 7.08C83.9605 7.08 85.4432 7.44267 86.7445 8.168C88.0458 8.89333 89.0592 9.91733 89.7845 11.24C90.5098 12.5413 90.8725 14.0453 90.8725 15.752ZM87.0645 14.6C87.0432 13.256 86.5632 12.1787 85.6245 11.368C84.6858 10.5573 83.5232 10.152 82.1365 10.152C80.8778 10.152 79.8005 10.5573 78.9045 11.368C78.0085 12.1573 77.4752 13.2347 77.3045 14.6H87.0645Z" fill="url(#paint0_linear_1_47)"/>
<defs>
<linearGradient id="paint0_linear_1_47" x1="-12.9812" y1="14" x2="172.702" y2="21.461" gradientUnits="userSpaceOnUse">
<stop stop-color="#4A4A69"/>
<stop offset="0.604615" stop-color="#D44C3B"/>
<stop offset="1" stop-opacity="0"/>
</linearGradient>
</defs>
</svg>
