<?xml version="1.0" encoding="utf-8"?><svg viewBox="0 0 128 128" xmlns="http://www.w3.org/2000/svg" xmlns:xlink="http://www.w3.org/1999/xlink"><style>:root>svg{display:none}:root>svg:target{display:block}</style><svg fill="none" viewBox="0 0 22 26" id="icon-add-file" xmlns="http://www.w3.org/2000/svg"><path d="M11 9v8M7 13h8M15 25H4.334a2.667 2.667 0 0 1-2.667-2.667V3.667A2.667 2.667 0 0 1 4.334 1h13.333a2.667 2.667 0 0 1 2.667 2.667v16L15 25Z" stroke="#fff" stroke-width="2" stroke-linecap="round" stroke-linejoin="round"/><path d="M15 25v-4a1.333 1.333 0 0 1 1.333-1.333h4" stroke="#fff" stroke-width="2" stroke-linecap="round" stroke-linejoin="round"/></svg><svg viewBox="0 0 31 35" id="icon-add-user" xmlns="http://www.w3.org/2000/svg"><path d="M11.693 13.818a6 6 0 1 0 0-12 6 6 0 0 0 0 12ZM1.693 33.818v-6a8 8 0 0 1 8-8h4a8 8 0 0 1 8 8v6M25.693 9.818v8M29.693 13.818h-8"/></svg><svg fill="none" viewBox="0 0 26 26" id="icon-arrow-down" xmlns="http://www.w3.org/2000/svg"><path d="m1 7 12 6 12-6-12-6L1 7ZM1 13l12 6 12-6" stroke="#fff" stroke-width="2" stroke-linecap="round" stroke-linejoin="round"/><path d="m1 13 12 6 12-6M1 19l12 6 12-6" stroke="#fff" stroke-width="2" stroke-linecap="round" stroke-linejoin="round"/></svg><svg fill="none" viewBox="0 0 26 22" id="icon-bar-chart" xmlns="http://www.w3.org/2000/svg"><path d="M1 1h22.667A1.333 1.333 0 0 1 25 2.333v1.334A1.333 1.333 0 0 1 23.667 5H1V1ZM1 9h14.667A1.333 1.333 0 0 1 17 10.333v1.334A1.333 1.333 0 0 1 15.667 13H1V9ZM1 17h6.667A1.334 1.334 0 0 1 9 18.333v1.334A1.333 1.333 0 0 1 7.667 21H1v-4Z" stroke="#fff" stroke-width="2" stroke-linecap="round" stroke-linejoin="round"/></svg><svg fill="none" viewBox="0 0 26 18" id="icon-business-card" xmlns="http://www.w3.org/2000/svg"><path d="M23.667 1H2.333C1.597 1 1 1.597 1 2.333v13.334C1 16.403 1.597 17 2.333 17h21.334c.736 0 1.333-.597 1.333-1.333V2.333C25 1.597 24.403 1 23.667 1Z" stroke="#fff" stroke-width="2" stroke-linecap="round" stroke-linejoin="round"/><path d="M11.667 5H5v8h6.667V5ZM21 5h-5.333M21 9h-5.333M18.334 13h-2.667" stroke="#fff" stroke-width="2" stroke-linecap="round" stroke-linejoin="round"/></svg><svg fill="none" viewBox="0 0 26 26" id="icon-chat" xmlns="http://www.w3.org/2000/svg"><path d="M25 13V4a3 3 0 0 0-3-3H4a3 3 0 0 0-3 3v9a3 3 0 0 0 3 3h1.5l3 9 3-9H22a3 3 0 0 0 3-3Z" stroke="#fff" stroke-width="2" stroke-linecap="round" stroke-linejoin="round"/></svg><svg viewBox="0 0 16 12" id="icon-check" xmlns="http://www.w3.org/2000/svg"><path fill-rule="evenodd" clip-rule="evenodd" d="M15.766.634a.8.8 0 0 1 0 1.132l-9.6 9.6a.8.8 0 0 1-1.132 0l-4.8-4.8a.8.8 0 1 1 1.132-1.132L5.6 9.67 14.634.634a.8.8 0 0 1 1.132 0Z"/></svg><svg fill="none" viewBox="0 0 26 26" id="icon-check-elem" xmlns="http://www.w3.org/2000/svg"><rect width="26" height="26" rx="8" fill="#356ABA"/><path fill-rule="evenodd" clip-rule="evenodd" d="M20.766 7.634a.8.8 0 0 1 0 1.132l-9.6 9.6a.8.8 0 0 1-1.132 0l-4.8-4.8a.8.8 0 0 1 1.132-1.132L10.6 16.67l9.034-9.035a.8.8 0 0 1 1.132 0Z" fill="#fff"/></svg><svg fill="none" viewBox="0 0 38 38" id="icon-circle-cross" xmlns="http://www.w3.org/2000/svg"><circle cx="19" cy="19" r="18" stroke="#D44C3B" stroke-width="2"/><path d="m13.5 13.5 11 11M13.5 24.5l11-11" stroke="#D44C3B" stroke-width="2" stroke-linecap="round" stroke-linejoin="round"/></svg><svg fill="none" viewBox="0 0 38 38" id="icon-circle-menu" xmlns="http://www.w3.org/2000/svg"><circle cx="19" cy="19" r="18" stroke="#D44C3B" stroke-width="2"/><path d="M10 13.6a.9.9 0 0 1 .9-.9h16.2a.9.9 0 1 1 0 1.8H10.9a.9.9 0 0 1-.9-.9ZM10 19a.9.9 0 0 1 .9-.9h16.2a.9.9 0 1 1 0 1.8H10.9a.9.9 0 0 1-.9-.9ZM10.9 23.5a.9.9 0 1 0 0 1.8h16.2a.9.9 0 0 0 0-1.8H10.9Z" fill="#D44C3B"/></svg><svg fill="none" viewBox="0 0 26 26" id="icon-compass" xmlns="http://www.w3.org/2000/svg"><path d="M13 25c6.627 0 12-5.373 12-12S19.627 1 13 1 1 6.373 1 13s5.373 12 12 12Z" stroke="#fff" stroke-width="2" stroke-linecap="round" stroke-linejoin="round"/><path d="m10.334 10.334-2.667 8 8-2.667-5.333-5.333Z" stroke="#fff" stroke-width="2" stroke-linecap="round" stroke-linejoin="round"/><path d="m10.333 10.333 8-2.667-2.667 8" stroke="#fff" stroke-width="2" stroke-linecap="round" stroke-linejoin="round"/></svg><svg fill="none" viewBox="0 0 26 26" id="icon-contact" xmlns="http://www.w3.org/2000/svg"><path d="M8.5 10a4.5 4.5 0 1 0 0-9 4.5 4.5 0 0 0 0 9ZM1 25v-4.5a6 6 0 0 1 6-6h3a6 6 0 0 1 6 6V22M20.5 10a3 3 0 1 0 0-6 3 3 0 0 0 0 6ZM16 20.5v-3a3 3 0 0 1 3-3h3a3 3 0 0 1 3 3V19" stroke="#fff" stroke-width="2" stroke-linecap="round" stroke-linejoin="round"/></svg><svg viewBox="0 0 14 15" id="icon-cross" xmlns="http://www.w3.org/2000/svg"><path d="m13 13.118-12-12m12 0-12 12"/></svg><svg fill="none" viewBox="0 0 26 26" id="icon-duplicate" xmlns="http://www.w3.org/2000/svg"><path d="M14.5 8.5H4a3 3 0 0 0-3 3V22a3 3 0 0 0 3 3h10.5a3 3 0 0 0 3-3V11.5a3 3 0 0 0-3-3Z" stroke="#fff" stroke-width="2" stroke-linecap="round" stroke-linejoin="round"/><path d="M17.5 17.5H22a3 3 0 0 0 3-3V4a3 3 0 0 0-3-3H11.5a3 3 0 0 0-3 3v4.5" stroke="#fff" stroke-width="2" stroke-linecap="round" stroke-linejoin="round"/></svg><svg fill="none" viewBox="0 0 22 26" id="icon-energy" xmlns="http://www.w3.org/2000/svg"><path d="M12.334 11.667h8L9.667 25V14.333h-8L12.334 1v10.667Z" stroke="#fff" stroke-width="2" stroke-linecap="round" stroke-linejoin="round"/></svg><svg fill="none" viewBox="0 0 22 26" id="icon-file-search" xmlns="http://www.w3.org/2000/svg"><path d="M8.334 25h-4a2.667 2.667 0 0 1-2.667-2.667V3.667A2.667 2.667 0 0 1 4.334 1h13.333a2.667 2.667 0 0 1 2.667 2.667V13M7 7.667h8M7 13h2.667" stroke="#fff" stroke-width="2" stroke-linecap="round" stroke-linejoin="round"/><path d="M15 23.667a4 4 0 1 0 0-8 4 4 0 0 0 0 8ZM20.334 25l-2.507-2.507" stroke="#fff" stroke-width="2" stroke-linecap="round" stroke-linejoin="round"/></svg><svg fill="none" viewBox="0 0 26 26" id="icon-find-user2" xmlns="http://www.w3.org/2000/svg"><path d="M10 10a4.5 4.5 0 1 0 0-9 4.5 4.5 0 0 0 0 9ZM1 25v-4.5a6 6 0 0 1 6-6h3M19 23.5a4.5 4.5 0 1 0 0-9 4.5 4.5 0 0 0 0 9ZM25 25l-2.82-2.82" stroke="#fff" stroke-width="2" stroke-linecap="round" stroke-linejoin="round"/></svg><svg fill="none" viewBox="0 0 26 26" id="icon-find-website" xmlns="http://www.w3.org/2000/svg"><path d="M11.5 25H4a3 3 0 0 1-3-3V4a3 3 0 0 1 3-3h18a3 3 0 0 1 3 3v7.5M1 10h24" stroke="#fff" stroke-width="2" stroke-linecap="round" stroke-linejoin="round"/><path d="M19 23.5a4.5 4.5 0 1 0 0-9 4.5 4.5 0 0 0 0 9ZM25 25l-2.82-2.82" stroke="#fff" stroke-width="2" stroke-linecap="round" stroke-linejoin="round"/></svg><svg fill="none" viewBox="0 0 20 21" id="icon-fire" xmlns="http://www.w3.org/2000/svg"><g clip-path="url(#sa)"><path d="M5.556 7.182c-.089.95-.151 2.632.41 3.347 0 0-.264-1.847 2.103-4.164.953-.933 1.173-2.201.84-3.153-.189-.539-.534-.984-.834-1.295a.28.28 0 0 1 .214-.474c1.54.069 4.038.497 5.098 3.16.466 1.168.5 2.376.279 3.604-.141.785-.641 2.528.5 2.742.814.154 1.207-.493 1.384-.959a.278.278 0 0 1 .466-.087c1.375 1.564 1.492 3.406 1.207 4.992-.55 3.066-3.654 5.297-6.739 5.297-3.853 0-6.92-2.205-7.715-6.196-.32-1.61-.158-4.798 2.326-7.048.185-.169.486-.019.461.234Z" fill="url(#sb)"/><path d="M11.892 12.915c-1.42-1.828-.784-3.914-.436-4.745.047-.11-.078-.213-.176-.145-.611.415-1.863 1.393-2.446 2.77-.789 1.86-.732 2.772-.265 3.884.281.67-.046.813-.21.838-.159.025-.306-.082-.423-.192a2.513 2.513 0 0 1-.694-1.188c-.025-.097-.151-.123-.21-.044-.437.605-.663 1.575-.674 2.261-.035 2.12 1.717 3.84 3.836 3.84 2.67 0 4.615-2.954 3.081-5.423-.445-.718-.864-1.189-1.383-1.856Z" fill="url(#sc)"/></g><defs><radialGradient id="sb" cx="0" cy="0" r="1" gradientUnits="userSpaceOnUse" gradientTransform="matrix(-11.0292 -.04793 .07865 -18.09673 9.721 20.24)"><stop offset=".314" stop-color="#FF9800"/><stop offset=".662" stop-color="#FF6D00"/><stop offset=".972" stop-color="#F44336"/></radialGradient><radialGradient id="sc" cx="0" cy="0" r="1" gradientUnits="userSpaceOnUse" gradientTransform="rotate(90.579 .584 9.75) scale(11.5401 8.68476)"><stop offset=".214" stop-color="#FFF176"/><stop offset=".328" stop-color="#FFF27D"/><stop offset=".487" stop-color="#FFF48F"/><stop offset=".672" stop-color="#FFF7AD"/><stop offset=".793" stop-color="#FFF9C4"/><stop offset=".822" stop-color="#FFF8BD" stop-opacity=".804"/><stop offset=".863" stop-color="#FFF6AB" stop-opacity=".529"/><stop offset=".91" stop-color="#FFF38D" stop-opacity=".209"/><stop offset=".941" stop-color="#FFF176" stop-opacity="0"/></radialGradient><clipPath id="sa"><path fill="#fff" transform="translate(0 .818)" d="M0 0h20v20H0z"/></clipPath></defs></svg><svg fill="none" viewBox="0 0 26 22" id="icon-location" xmlns="http://www.w3.org/2000/svg"><path d="M22.333 6.93A2.667 2.667 0 0 1 25 9.597v8a2.667 2.667 0 0 1-2.667 2.666H3.667A2.667 2.667 0 0 1 1 17.597v-8A2.667 2.667 0 0 1 3.667 6.93" stroke="#fff" stroke-width="2" stroke-linecap="round" stroke-linejoin="round"/><path d="M18.334 7.07c0 3.027-5.334 7.86-5.334 7.86s-5.333-4.833-5.333-7.86a5.333 5.333 0 0 1 10.667 0Z" stroke="#fff" stroke-width="2" stroke-linecap="round" stroke-linejoin="round"/></svg><svg fill="none" viewBox="0 0 26 22" id="icon-pagers" xmlns="http://www.w3.org/2000/svg"><path d="M22.333 1.667H3.667A2.667 2.667 0 0 0 1 4.332v13.334a2.667 2.667 0 0 0 2.667 2.666h18.666A2.667 2.667 0 0 0 25 17.667V4.332a2.667 2.667 0 0 0-2.667-2.667Z" stroke="#fff" stroke-width="2" stroke-linecap="round" stroke-linejoin="round"/><path d="M21 5.667H5V11h16V5.667ZM5 16.333h1.333M10.333 16.333H21" stroke="#fff" stroke-width="2" stroke-linecap="round" stroke-linejoin="round"/></svg><svg fill="none" viewBox="0 0 12 15" id="icon-play" xmlns="http://www.w3.org/2000/svg"><path fill-rule="evenodd" clip-rule="evenodd" d="M10.912 8.651c.165-.102.297-.229.388-.37a.836.836 0 0 0 .137-.452.836.836 0 0 0-.137-.452 1.218 1.218 0 0 0-.388-.371L1.353 1.023C.654.578.063.89.063 1.7v12.23c0 .848.597 1.123 1.29.678l9.56-5.958Z" fill="#fff"/></svg><svg fill="none" viewBox="0 0 26 26" id="icon-stock-chart" xmlns="http://www.w3.org/2000/svg"><path d="M25 25V1M19 25V8.5M13 25V5.5M7 25V11.5M1 25v-7.5" stroke="#fff" stroke-width="2" stroke-linecap="round" stroke-linejoin="round"/></svg><svg data-name="Layer 1" viewBox="0 0 128 128" id="icon-tel" xmlns="http://www.w3.org/2000/svg"><path d="m123.288 96.797-22.5-16.448a6.26 6.26 0 0 0-8.084.59l-12.02 11.804-.041.041a5.336 5.336 0 0 1-7.504-.083L52.36 71.92 35.3 54.861a5.336 5.336 0 0 1-.083-7.504l.04-.04 11.806-12.021a6.26 6.26 0 0 0 .59-8.084l-16.45-22.5a6.262 6.262 0 0 0-9.483-.733l-8.48 8.48q-.804.804-1.535 1.668c-1.556 1.84-4.926 5.964-6.207 8.618a34.595 34.595 0 0 0 5.739 38.17l55.848 55.85a34.595 34.595 0 0 0 38.171 5.738c2.654-1.281 6.778-4.65 8.618-6.207q.864-.731 1.668-1.535l8.48-8.48a6.262 6.262 0 0 0-.733-9.484Z"/></svg><svg fill="none" viewBox="0 0 22 26" id="icon-upload-file" xmlns="http://www.w3.org/2000/svg"><path d="M13.666 1H4.333a2.667 2.667 0 0 0-2.667 2.667v18.666A2.667 2.667 0 0 0 4.333 25h13.333a2.666 2.666 0 0 0 2.667-2.667V7.667L13.666 1Z" stroke="#fff" stroke-width="2" stroke-linecap="round" stroke-linejoin="round"/><path d="M13.666 1v5.333a1.333 1.333 0 0 0 1.333 1.334h5.334M14.999 15.667l-4-4-4 4M10.999 11.667V21" stroke="#fff" stroke-width="2" stroke-linecap="round" stroke-linejoin="round"/></svg><svg fill="none" viewBox="0 0 26 22" id="icon-waves" xmlns="http://www.w3.org/2000/svg"><path d="M1 17.666c4 0 4 2.667 8 2.667s4-2.666 8-2.666 4 2.666 8 2.666M1 9.666c4 0 4 2.667 8 2.667s4-2.667 8-2.667 4 2.667 8 2.667M1 1.667c4 0 4 2.666 8 2.666s4-2.666 8-2.666 4 2.666 8 2.666" stroke="#fff" stroke-width="2" stroke-linecap="round" stroke-linejoin="round"/></svg></svg>